<svg version="1.0" xmlns="http://www.w3.org/2000/svg" viewBox="0 0 64 64"><path d="M32.7.6c-.4.4-.7 2.2-.7 4.1 0 3.2-.1 3.3-4 3.3-5.3 0-8 2.7-8 8 0 3.7-.4 4.2-6.1 8.1C3.5 31.1 4 30 4 46c0 19.5-2.3 18 28 18s28 1.5 28-18c0-12.7-.2-14.2-2-16-1.3-1.3-3.3-2-6-2h-4v-8c0-9.6-1.6-12-7.9-12-3.9 0-4-.1-4.3-3.7C35.5.8 34.1-.8 32.7.6zm11.1 19.6c.3 7.3.1 7.8-1.8 7.8-1.1 0-2.9.9-4 2-1.8 1.8-2 3.3-2 16v14h-8V41.7c0-17.1-.1-18.5-2-20.2-2-1.8-2.8-7.4-1.3-8.9.4-.4 4.8-.5 9.8-.4l9 .3.3 7.7zM24 42v18.1l-7.7-.3-7.8-.3-.3-13.1-.3-13.2 6.3-4.5C24.3 21.3 24 21 24 42zm31.5 4v13.5l-7.7.3-7.8.3V46.7c0-7.3.3-13.7.7-14.1.4-.4 3.9-.5 7.8-.4l7 .3V46z"/></svg>