<svg version="1.0" xmlns="http://www.w3.org/2000/svg" viewBox="0 0 64 64"><path d="M16.8 1.7C12.9 4.1 12 7.1 12 16.6c0 9.8-.8 11.8-5 13.2-1.6.6-3 1.6-3 2.2 0 .6 1.4 1.6 3 2.2 4.2 1.4 5 3.4 5 13.3 0 5.6.5 9.6 1.5 11.4 1.5 3.1 6.5 5.7 9 4.7 2.4-.9 1.7-2.6-1.5-3.8-4.2-1.4-5-3.4-5-13.3 0-5.8-.5-9.6-1.5-11.5-1.4-2.7-1.4-3.3 0-6 1-1.9 1.5-5.7 1.5-11.5 0-9.9.7-11.9 5.1-13.4 1.7-.6 2.9-1.6 2.7-2.3-.7-2-4-2-7-.1zM40.5 1c-.8 1.4.3 3 2.1 3 .8 0 2.3.9 3.4 2 1.7 1.7 2 3.3 2 11 0 6.4.5 10 1.6 12.2 1.5 2.9 1.5 3.4 0 5.9C48.5 37 48 40.3 48 46.5c0 9.9-.7 11.9-5 13.3-3.2 1.2-3.9 2.9-1.5 3.8 2.5 1 7.5-1.6 9-4.7 1-1.8 1.5-5.8 1.5-11.4 0-9.9.8-11.9 5-13.3 1.6-.6 3-1.6 3-2.2 0-.6-1.4-1.6-3-2.2-4.2-1.4-5-3.4-5-13.3 0-5.5-.5-9.6-1.4-11.4C48.5 1.2 42-1.5 40.5 1z"/></svg>