<svg version="1.0" xmlns="http://www.w3.org/2000/svg" viewBox="0 0 64 64"><path d="M15 16.8.5 24.6v9.5c0 7.7.3 9.4 1.5 9.4s1.6-1.5 1.8-6.8c.2-3.7.5-6.7.7-6.7.2 0 2 .8 4 1.7C12 33.4 12 33.4 12 40c0 7.8 1.1 9.3 10.3 13.6 7.1 3.2 14 3 20.8-.5C51 49 52 47.5 52 40.1v-6.6l5.8-3c3.1-1.7 5.7-3.7 5.7-4.5 0-1.9-28-17-31.5-17-1.4 0-9 3.6-17 7.8zm30.1 2.4C51.6 22.7 57 25.7 57 26c0 .3-5.6 3.4-12.5 7L32 39.5 19.5 33C12.6 29.4 7 26.3 7 26c0-.8 23.3-12.9 24.9-13 .7 0 6.7 2.8 13.2 6.2zM32 43c1.1 0 5.2-1.6 9-3.5l7-3.5v4.9c0 4.6-.2 5-3.6 7-8.7 5.1-16.8 5.1-24.9-.1-3.2-2.1-3.5-2.7-3.5-7.1V36l7 3.5c3.8 1.9 7.9 3.5 9 3.5z"/></svg>