<svg version="1.0" xmlns="http://www.w3.org/2000/svg" viewBox="0 0 64 64"><path d="M27.6 5.9c-13 3.9-20.5 6.6-21.9 8-2 1.9-2 2.4-.9 7.9C5.5 25 6 34.7 6 43.4c0 15.3.1 15.7 2.5 18.1l2.4 2.5h22.6c21.2 0 22.6-.1 24.5-2 1.8-1.8 2-3.3 2-19V26l-21.2-.2-21.3-.3 19.9-5.8c11-3.2 20.2-6 20.5-6.2C58.9 12.4 54.8 2 53 1 50.1-.5 48.9-.3 27.6 5.9zm26 .6c.7 1.9 1.4 3.9 1.4 4.4 0 .6-3.3 1.9-7.2 3.1-4 1.1-9.3 2.6-11.8 3.4-2.5.7-6.3 1.9-8.5 2.5-2.2.6-6.9 2-10.4 3.1s-7 2-7.7 2c-1.7 0-3.6-6.8-2.4-9 .7-1.4 13.5-5.8 21.5-7.5 1.1-.2 5.4-1.5 9.5-2.9 4.1-1.3 9-2.4 10.8-2.5 2.9-.1 3.5.4 4.8 3.4zM58 42.6c0 8.1-.5 15.4-1 16.5-1 1.8-2.4 1.9-23.9 1.9-19.9 0-23-.2-23.5-1.6-.3-.9-.6-8.3-.6-16.5V28h49v14.6z"/><path d="M25.6 34.6c-.3.9-.6 5.8-.6 11 0 6.8.4 9.6 1.3 10C27.9 56.2 46 46 46 44.4 46 43.3 28.9 33 27.1 33c-.5 0-1.2.7-1.5 1.6zm10.1 7 4.5 2.7-4.6 2.8c-2.5 1.6-5 2.9-5.6 2.9-.5 0-1-2.5-1-5.5 0-3.2.4-5.5 1.1-5.5.6 0 3.1 1.2 5.6 2.6z"/></svg>