<svg version="1.0" xmlns="http://www.w3.org/2000/svg" viewBox="0 0 64 64"><path d="M43.8 3.7c-.7 1.5-2.6 3.4-4.1 4.1-1.5.7-2.7 1.7-2.7 2.2 0 .5 1.2 1.5 2.7 2.2 1.5.7 3.4 2.6 4.1 4.1 1.7 3.4 2.7 3.4 4.4 0 .7-1.5 2.6-3.4 4.1-4.1 1.5-.7 2.7-1.7 2.7-2.2 0-.5-1.2-1.5-2.7-2.2-1.5-.7-3.4-2.6-4.1-4.1C47.5 2.2 46.5 1 46 1c-.5 0-1.5 1.2-2.2 2.7zm3.9 7.8c-1.3 1.3-1.6 1.3-2.7 0-1-1.2-1-1.8 0-3 1.1-1.3 1.4-1.3 2.7 0 1.3 1.3 1.3 1.7 0 3zm-44.6-4L.8 10l2.6 2.7L6 15.3l2.6-2.6 2.6-2.7-2.3-2.5C7.6 6.2 6.3 5 6 5c-.3 0-1.6 1.2-2.9 2.5zm15.8 3.4c-3.4 3.5-3.7 6.8-.8 10.5 2.5 3.2 6.8 3.5 9.4.6 2.7-2.9.6-4.9-3-3-2.3 1.2-2.8 1.2-3.5 0-2.3-3.6.1-7 4.9-7 3.1 0 6.1 4.6 6.1 9.5 0 5.2-3.2 10.3-8.3 13-2.1 1.1-3.7 2.8-3.7 3.7 0 2.4 1.6 2.3 6.6-.7 8.1-4.7 11.5-14.6 8-22.9-2.9-7-10.5-8.8-15.7-3.7zm36.2 8.6L52.8 22l2.6 2.7 2.6 2.6 2.6-2.6 2.6-2.7-2.3-2.5C59.6 18.2 58.3 17 58 17c-.3 0-1.6 1.2-2.9 2.5z"/><path d="M4.5 33C.7 36.9-.1 38.3.8 39.2c.9.9 1.9.5 4.2-1.7l3-2.9v10.7C8 63.3 8.9 64 32 64s24-.7 24-18.7V34.6l3 2.9c2.3 2.2 3.3 2.6 4.2 1.7.9-.9.1-2.3-3.7-6.2l-4.9-5h-7.7c-7.3 0-8.9.6-8.9 3.6 0 .2 3.2.4 7 .4h7v12c0 16.6.7 16-20 16s-20 .6-20-16V32h4.4c2.9 0 5.2-.7 6.7-2l2.4-1.9-8-.1H9.4l-4.9 5z"/></svg>