<svg version="1.0" xmlns="http://www.w3.org/2000/svg" viewBox="0 0 64 64"><path d="M11 5.1C5.3 7.4 0 15 0 20.9 0 25.8 1.1 28 3.5 28c2.1 0 2.2-.2 1.3-2.8C1.4 16.3 11 6 20.4 8.4c1.3.3 4.3 2.2 6.6 4.1 2.3 1.9 4.6 3.5 5 3.5.4 0 2.7-1.6 5-3.5 7-5.9 13.6-5.7 19.6.6 2.5 2.7 2.9 3.8 2.9 9-.1 4.9.2 5.9 1.6 5.9 3.6 0 4-8.6.6-14.5C56 3.5 43.8 1.3 35 8.7l-3.1 2.6-2.2-2.1c-4.8-4.5-13-6.3-18.7-4.1z"/><path d="m17.1 25.9-4.1 6-6.3.3C2 32.4.5 32.9.5 34c0 1.2 1.6 1.6 7.2 1.8l7.1.3 3.2-4.6c1.7-2.5 3.4-4.5 3.8-4.5.4 0 2.7 3.8 5 8.5S31.4 44 32 44c.6 0 3-3.2 5.5-7 2.5-3.9 4.9-7 5.3-7 .5 0 2.1 1.4 3.7 3 2.8 2.9 3.3 3.1 10 2.8 5.4-.2 7-.6 7-1.8 0-1.2-1.5-1.6-6.6-1.8-6.2-.3-6.8-.5-10.4-4.2-2.2-2.2-4.3-4-4.7-4-.4 0-2.6 2.9-4.9 6.5-2.3 3.6-4.4 6.3-4.8 6-.3-.4-2.4-4.1-4.6-8.2-2.2-4.2-4.6-7.8-5.2-8-.6-.2-3 2.3-5.2 5.6z"/><path d="M21.5 50c5.5 5.5 10.4 10 11 10 .6 0 5.5-4.5 11-10 9.5-9.5 9.8-10 7-10-2.3 0-4.5 1.6-10.7 7.7L32 55.5l-7.8-7.8C18.8 42.3 15.7 40 14 40c-2.1 0-1.1 1.4 7.5 10z"/></svg>