<svg version="1.0" xmlns="http://www.w3.org/2000/svg" viewBox="0 0 64 64"><path d="M16.8 12.7 4 25.4v14.8c0 14.5.1 15 2.5 17.3C8.7 59.8 9.7 60 17.3 60c5.1 0 8.8-.5 9.5-1.2.8-.8 1.2-4.5 1.2-10V40h8v8.8c0 5.5.4 9.2 1.2 10 .7.7 4.4 1.2 9.5 1.2 7.6 0 8.6-.2 10.8-2.5 2.4-2.3 2.5-2.8 2.5-17.3V25.4L47.2 12.7C38.1 3.7 33.6 0 32 0c-1.6 0-6.1 3.7-15.2 12.7zm27.9 2.5L56 26.4V40c0 9.2-.4 14-1.2 14.8-.7.7-4 1.2-8 1.2H40v-8.8c0-5.5-.4-9.2-1.2-10-.7-.7-3.7-1.2-6.8-1.2-3.1 0-6.1.5-6.8 1.2-.8.8-1.2 4.5-1.2 10V56h-6.8c-4 0-7.3-.5-8-1.2C8.4 54 8 49.2 8 40V26.4l11.3-11.2C25.6 9 31.3 4 32 4c.7 0 6.4 5 12.7 11.2z"/></svg>