<svg version="1.0" xmlns="http://www.w3.org/2000/svg" viewBox="0 0 64 64"><path d="M15.5 1c-4.4 1.8-7 5.9-7 11.2 0 4.4.4 5.3 3.7 8.4 2.8 2.6 4.7 3.4 7.4 3.4C26.4 24 32 18.6 32 12c0-8.2-8.9-14.2-16.5-11zm10 5.5c3.3 3.2 3.3 7.8 0 11-3.1 3.2-7.4 3.2-10.9 0-3.4-3.2-3.4-7.4 0-10.9 3.4-3.4 7.7-3.4 10.9-.1zm17 8C40.9 16 40 18.1 40 20s.9 4 2.5 5.5C44 27.1 46.1 28 48 28c7 0 10.5-8.6 5.5-13.5C52 12.9 49.9 12 48 12s-4 .9-5.5 2.5zm8.5 3c1.5 1.8 1 4.5-1.2 5.9-3.5 2.2-7.4-2.7-4.8-5.9 1.6-1.9 4.4-1.9 6 0zm-24.5 9C21.5 31.4 25 40 32 40c4.1 0 8-3.9 8-8 0-1.9-.9-4-2.5-5.5C36 24.9 33.9 24 32 24s-4 .9-5.5 2.5zm8.5 3c2.6 3.2-1.3 8.1-4.7 5.9-2.3-1.4-2.8-4.1-1.3-5.9 1.6-1.9 4.4-1.9 6 0zM2 30C-2.4 34.4.5 43.7 8 48.8c3.3 2.2 3.5 2.3 3.8.4.2-1.1-1.3-3.5-3.8-6-3.4-3.4-4.1-4.7-3.8-7.4l.3-3.3 7.6-.3c6.7-.2 7.8-.5 8.2-2.2.5-1.9 0-2-7.9-2-7.1 0-8.7.3-10.4 2zm41.7 4c-.5 1.9 0 2 7.4 2 6.4 0 8.1.3 8.6 1.6 1 2.5-2.3 8.3-5.2 9-1.8.4-2.5 1.3-2.5 3 0 2.1.2 2.2 2.9 1.3 7.3-2.6 11.6-12.4 7.2-16.8-1.8-1.8-3.3-2.1-10-2.1-7 0-7.9.2-8.4 2zM18 46c-2.6 2.6-2.5 6.9.3 11.1 6.1 9.2 21.3 9.2 27.4 0 2.8-4.2 2.9-8.5.3-11.1-1.8-1.8-3.3-2-14-2s-12.2.2-14 2zm25.6 3.5C45.4 54.1 38.8 60 32 60s-13.4-5.9-11.6-10.5c.8-2.2 22.4-2.2 23.2 0z"/></svg>