<svg version="1.0" xmlns="http://www.w3.org/2000/svg" viewBox="0 0 64 64"><path d="M22 1.6C15.2 4.1 9.7 8.3 5.7 14.2c-8.8 12.9-7.2 29.6 4 40.4 6.9 6.8 12.3 8.9 22.3 8.9 7 0 9.4-.4 13.5-2.5 6.1-3 12.6-9.5 15.7-15.7 3.4-6.9 3.3-19.7-.2-26.8-3-6.2-9.5-12.6-15.6-15.6C39.2 0 28.2-.7 22 1.6zm21.4 5.1c2 .9 3.6 2 3.6 2.4 0 .4-2.5 2.9-5.5 5.6-6.1 5.3-6.7 7.5-3.4 11.7 1.2 1.5 2.7 4.8 3.4 7.4 1.2 4.6 1.3 4.7 4.8 4.5 4.6-.3 4.8 1.3.8 5.1-3.7 3.5-4.3 5.7-2.5 9.2 2 3.8 1.9 4-3.3 5.8-9.1 3.1-20.1 1.2-26.6-4.6-3.3-3-3.5-3.6-2.9-7.2.7-4.1 1.3-4.6 7.5-7.1l3.9-1.5-.4-6.6-.3-6.7 3.4-1.1c4.3-1.5 8.1-5.9 8.1-9.4-.1-1.5-.7-4.4-1.5-6.6l-1.4-3.9 4.4.6c2.3.4 5.9 1.4 7.9 2.4zM28.8 9.2c2.2 5.7 1.1 8-5 10.8l-5.3 2.5.2 6.7.2 6.7-3.8 1.1c-4.3 1.1-5.4 2.2-6.8 6.5-1 3-1 3-2.8-2.9C1.5 27.1 7 13.8 19 7.4c6-3.1 8.1-2.8 9.8 1.8zm29.5 13.9c2.1 6.3 2.1 11.1.2 17.5-1.7 5.7-7.5 13.1-9.3 12-1.9-1.2-1.4-4.5 1.1-6.9 1.3-1.2 2.9-3.2 3.6-4.5 1.8-3.3-.8-7-5.1-7.4-2.5-.2-3.3-.9-3.9-3-.4-1.5-1.7-4.1-2.9-5.7L39.9 22l5.3-5.5 5.3-5.5 3.1 3.5c1.7 1.9 3.8 5.8 4.7 8.6z"/></svg>