<svg version="1.0" xmlns="http://www.w3.org/2000/svg" viewBox="0 0 64 64"><path d="M2.5 10.5C0 12.9 0 13.1 0 32c0 25.7-1.7 24 24 24 18.9 0 19.1 0 21.5-2.5 1.9-1.8 2.5-3.5 2.5-7v-4.6l5.3 4.1C63.1 53.3 64 52.1 64 32s-.9-21.3-10.7-14L48 22.1v-4.6c0-3.5-.6-5.2-2.5-7C43.1 8 42.9 8 24 8S4.9 8 2.5 10.5zm40.3 2.7c1.7 1.7 1.7 35.9 0 37.6-1.7 1.7-35.9 1.7-37.6 0-1.7-1.7-1.7-35.9 0-37.6 1.7-1.7 35.9-1.7 37.6 0zM60 32.1v14l-6-4.6c-5.9-4.5-6-4.7-6-9.5 0-4.7.2-5 5.8-9.4 3.1-2.5 5.8-4.5 6-4.6.1 0 .2 6.3.2 14.1z"/></svg>