<svg version="1.0" xmlns="http://www.w3.org/2000/svg" viewBox="0 0 64 64"><path d="M13.8 10c-.9 1.4-2.4 2-5.1 2-2.7 0-4.5.7-6.3 2.5C0 16.9 0 17.1.2 32.2.5 45 .7 47.5 2 47.5c1.2 0 1.6-1.7 1.8-8l.3-8 4.2.4c2.6.2 4.7 1.1 5.5 2.2 2 2.9 8.6 2.6 11.7-.6C27.8 31.3 28 30.3 28 22s-.2-9.3-2.5-11.5C22.3 7.2 15.6 7 13.8 10zm9 3.2c.7.7 1.2 4.2 1.2 8.9 0 8.3-1.1 10.3-5.2 9.7-2.2-.3-2.3-.8-2.6-8.7-.2-4.6-.1-9 .2-9.8.7-1.6 4.8-1.7 6.4-.1zM12 22c0 5.9 0 6-2.8 6C5.5 28 4 26.3 4 22s1.5-6 5.2-6c2.8 0 2.8.1 2.8 6zm26.5-3.5C36.2 20.7 36 21.7 36 30s.2 9.3 2.5 11.5c3.1 3.2 9.7 3.5 11.7.6.8-1.1 2.9-2 5.5-2.2l4.2-.4.3 8c.2 6.3.6 8 1.8 8 1.3 0 1.5-2.5 1.8-15.3.2-15.1.2-15.3-2.2-17.7-1.7-1.7-3.6-2.5-6.1-2.5-2.2 0-4.3-.8-5.5-2-2.9-2.9-8.4-2.7-11.5.5zm9 11.5c0 9.2-.1 9.5-2.3 9.8-4.1.6-5.2-1.4-5.2-9.7 0-8.4 1-10.4 5-9.9 2.5.3 2.5.4 2.5 9.8zm11.3-4.8c1.6 1.6 1.6 8 0 9.6-.7.7-2.5 1.2-4 1.2-2.8 0-2.8-.1-2.8-6s0-6 2.8-6c1.5 0 3.3.5 4 1.2z"/></svg>