<svg version="1.0" xmlns="http://www.w3.org/2000/svg" viewBox="0 0 64 64"><path d="M10.5 6.5C9.1 7.8 8 9.6 8 10.5c0 .8-.7 1.5-1.5 1.5-.9 0-2.7 1.1-4 2.5C0 16.9 0 17.2 0 34s0 17.1 2.5 19.5L4.9 56h46.2l2.4-2.5c1.4-1.3 2.5-3.1 2.5-4 0-.8.7-1.5 1.5-1.5.9 0 2.7-1.1 4-2.5C64 43.1 64 42.8 64 26s0-17.1-2.5-19.5L59.1 4H12.9l-2.4 2.5zm48.3 2.7c1.7 1.7 1.7 31.9 0 33.6-.7.7-1.6 1.2-2 1.2-.4 0-.8-6.1-.8-13.5 0-13.1-.1-13.7-2.5-16C51.1 12 51 12 31.5 12c-10.7 0-19.5-.4-19.5-.8C12 8.4 15 8 36 8c15.5 0 21.9.3 22.8 1.2zm-8 8c1.7 1.7 1.7 31.9 0 33.6-1.7 1.7-43.9 1.7-45.6 0-1.7-1.7-1.7-31.9 0-33.6 1.7-1.7 43.9-1.7 45.6 0z"/><path d="M8.5 21.1c-1.4 2.2 1.4 3 10.1 2.7 7.1-.2 8.9-.6 8.9-1.8 0-1.2-1.8-1.6-9.2-1.8-6-.2-9.4.1-9.8.9zm23.9.2c-.3.8-.4 4.3-.2 7.8l.3 6.4h15v-15l-7.3-.3c-5.5-.2-7.4.1-7.8 1.1zM44 28v4h-8v-8h8v4zM8.5 33.1c-1.4 2.2 1.4 3 10.1 2.7 7.1-.2 8.9-.6 8.9-1.8 0-1.2-1.8-1.6-9.2-1.8-6-.2-9.4.1-9.8.9zm0 12c-1.6 2.5 1.8 2.9 20.1 2.7 16-.3 18.9-.5 18.9-1.8s-2.9-1.5-19.2-1.8c-13.2-.2-19.4.1-19.8.9z"/></svg>