<svg version="1.0" xmlns="http://www.w3.org/2000/svg" viewBox="0 0 64 64"><path d="M48.8 5.9C42.3 11.2 35.6 17.7 18.3 36c-2.8 3-6.3 6.5-7.7 7.6-1.4 1.3-2.8 3.8-3.2 6-.4 2.5-2 5.3-4.2 7.6-2.7 2.9-3.3 4.1-2.4 5 1.7 1.7 11.1 2.2 16.1.8 4.9-1.3 11.1-6.7 11.1-9.7 0-1 2.7-4.5 6.1-7.8C46.6 33.2 64 9.9 64 5.4 64 2.9 60.7 0 57.8 0c-.9 0-5 2.7-9 5.9zm10.9-.3c.6 1.9-15 22.8-23.6 31.6L27.5 46l-3.3-3.1-3.4-3 4.9-5.7c2.7-3.1 6-7 7.4-8.6C36.9 21 57.2 3.9 58.4 4.3c.5.2 1.1.8 1.3 1.3zM22 46c5.7 5.7-1.3 14-11.6 14H6.9l2-2.8c1-1.5 2.2-4.4 2.5-6.4 1.1-6.2 6.7-8.7 10.6-4.8z"/></svg>