<svg version="1.0" xmlns="http://www.w3.org/2000/svg" viewBox="0 0 64 64"><path d="M20.8 1.7c-.8 1-2.1 2.8-2.7 4-1 2-2 2.3-7.2 2.3-5 0-6.4.4-8.4 2.5C0 12.9 0 12.9 0 34s0 21.1 2.5 23.5L4.9 60h54.2l2.4-2.5C64 55.1 64 55.1 64 34s0-21.1-2.5-23.5c-2-2.1-3.4-2.5-8.3-2.5-5.7 0-5.9-.1-8.3-3.8L42.5.5 32.4.2C23.8 0 22.1.2 20.8 1.7zM43 8l2 4h6.3c3.6 0 6.8.5 7.5 1.2 1.7 1.7 1.7 39.9 0 41.6-1.7 1.7-51.9 1.7-53.6 0-1.8-1.8-1.7-40.1.1-41.6.7-.6 4.2-1.2 7.7-1.4 6.4-.3 6.5-.4 8.5-4l2-3.8H41l2 4z"/><path d="M25.2 17.6c-1.8 1-4.5 3.3-6 5.2-2.2 2.9-2.7 4.6-2.7 9.2 0 4.7.5 6.3 2.9 9.4 6.8 9 19 8.6 26-.8 2.9-3.9 2.9-13.3 0-17.2-5-6.7-13.5-9.2-20.2-5.8zm12.2 3.9c6.1 2.9 8.1 9.5 5 16.1-3.4 7.2-12.9 8.4-18.8 2.5-2.6-2.7-3.1-3.9-3.1-8 0-9.3 8.4-14.6 16.9-10.6z"/></svg>