<svg version="1.0" xmlns="http://www.w3.org/2000/svg" viewBox="0 0 64 64"><path d="m4.7 4.7-.7.6v49.8l2.5 2.5L8.9 60l25.3-.2 25.3-.3.3-25.7L60 8l-2-2-2-2H44l-2 2-2 2v29.5L23.2 20.7 6.5 4H5.3l-.6.7zM55.8 31l.2 22.5-6-6-6-5.9v-1.5l3.8-.3 3.7-.3v-3l-3.7-.3-3.8-.3v-3.7l2-.5 2-.5v-2.4l-2-.5-2-.5v-3.7l3.8-.3 3.7-.3v-3l-3.7-.3-3.8-.3v-3.7l2-.5 2-.5v-2.4l-2-.5-2-.5V9.3l.7-.7.7-.7 5.1.3 5 .3.3 22.5zM31.9 55.8l-21.1.2-1.4-1.1L8 53.8V10.5L30.5 33 53 55.5l-21.1.3z"/><path d="m16.4 33.4-.5 1.3.3 6.4.3 6.4 6.9.3 6.9.3 1.1-1.1 1-1-6.9-7-6.9-7h-1.7l-.5 1.4zm6.6 8.1 2.3 2.5H20v-5h.7l2.3 2.5z"/></svg>