<svg version="1.0" xmlns="http://www.w3.org/2000/svg" viewBox="0 0 64 64"><path d="M25.5 1.4C19 4.3 16 9.9 16 18.6c0 4.2-.3 5.4-1.5 5.4-.9 0-2.7 1.1-4 2.5C8.1 28.8 8 29.3 8 44s.1 15.2 2.5 17.5C12.9 64 13.1 64 32 64s19.1 0 21.5-2.5C55.9 59.2 56 58.7 56 44s-.1-15.2-2.5-17.5c-1.3-1.4-3.1-2.5-3.8-2.5-1.1 0-1.6-1.8-1.9-7-.4-7.4-1.9-10.5-7-14.3C37.4.2 29.5-.5 25.5 1.4zm11.9 4.1c4.5 2.2 6.6 6.2 6.6 12.9V24H19.8l.4-6.5c.3-5.1.9-7 2.8-9.1 4.3-4.6 8.9-5.5 14.4-2.9zm13.4 23.7c1.7 1.7 1.7 27.9 0 29.6-1.7 1.7-35.9 1.7-37.6 0-1.7-1.7-1.7-27.9 0-29.6 1.7-1.7 35.9-1.7 37.6 0z"/><path d="M29 41.5c-2.6 3.2 1.3 8.1 4.8 5.9 2.2-1.4 2.7-4.1 1.2-5.9-1.6-1.9-4.4-1.9-6 0z"/></svg>