<svg version="1.0" xmlns="http://www.w3.org/2000/svg" viewBox="0 0 64 64"><path d="M25.5 1.4c-4.1 1.8-8.3 6.9-9.1 11.1-.5 2.9-1.1 3.5-3.1 3.5-3.1 0-7.9 2.5-8.7 4.5-.3.9-.6 9.1-.6 18.1 0 16.2 0 16.5 2.5 18.9L8.9 60h46.2l2.4-2.5C60 55.1 60 54.8 60 38s0-17.1-2.5-19.5C55.9 16.8 54 16 51.7 16c-3.2 0-3.5-.3-4.1-3.5C45.8 3.1 34.5-2.6 25.5 1.4zm11.9 4.1c3.3 1.6 6.6 6.1 6.6 8.9 0 1.4-1.7 1.6-12.1 1.6H19.8l.7-2.8c1.8-7.4 9.8-11.1 16.9-7.7zM16.2 23.7c.2 2.6.8 3.8 1.8 3.8s1.6-1.2 1.8-3.8l.3-3.7h23.8l.3 3.7c.2 2.6.8 3.8 1.8 3.8s1.6-1.2 1.8-3.8c.3-3.3.6-3.7 3.1-3.7 1.5 0 3.2.5 3.9 1.2 1.7 1.7 1.7 31.9 0 33.6-1.7 1.7-43.9 1.7-45.6 0-1.7-1.7-1.7-31.9 0-33.6.7-.7 2.4-1.2 3.9-1.2 2.5 0 2.8.4 3.1 3.7z"/></svg>