<svg version="1.0" xmlns="http://www.w3.org/2000/svg" viewBox="0 0 64 64"><path d="M22 1.6C11.8 5.3 3.3 14.4.9 24.3-.4 29.8.2 38.9 2.3 43.9c1.3 3 1.2 4.2-.5 10.9C.5 59.7.2 62.6.9 63.3c.6.6 3.4.4 8-.8 6.8-1.6 7.4-1.6 13.6 0 15.9 4.3 31.4-2.5 38.6-17 3.5-7.1 3.4-19.8-.1-27C57.9 12.1 51.8 6.1 45.6 3 39.2 0 28.4-.7 22 1.6zm19 4c7.4 2.2 15.2 10 17.4 17.4 3.4 11.3 1.1 20.6-6.8 28.6-8.1 8-18.4 10.4-29.1 6.5-4.5-1.5-5.6-1.6-10.9-.4-3.2.8-6 1.2-6.2 1.1-.2-.2.4-3 1.2-6.3 1.4-5.4 1.4-6.1-.3-9.9-2.7-6-2.4-16.8.6-22.6C13.7 6.9 26.7 1.4 41 5.6z"/><path d="M12.7 28.8c-2.2 2.4-2.1 4.5.3 6.7 4.5 4 10.5-2 6.5-6.5-2.3-2.5-4.7-2.5-6.8-.2zm16 0c-2.2 2.4-2.1 4.5.3 6.7 4.5 4 10.5-2 6.5-6.5-2.3-2.5-4.7-2.5-6.8-.2zm16 0c-2.2 2.4-2.1 4.5.3 6.7 4.5 4 10.5-2 6.5-6.5-2.3-2.5-4.7-2.5-6.8-.2z"/></svg>