<svg version="1.0" xmlns="http://www.w3.org/2000/svg" viewBox="0 0 64 64"><path d="M2.3 10.2C.1 12.5 0 13.3 0 32.1c0 19.4 0 19.6 2.4 21.8 2.4 2.2 2.7 2.3 12.6 1.2 12.8-1.4 22.7-1.4 34.6 0 9.3 1.1 9.6 1.1 12-1.2C64 51.7 64 51.5 64 32c0-19.4 0-19.7-2.4-21.9-2.3-2.2-2.6-2.2-13.2-1-10.2 1.1-27 .8-38.9-.7-4.4-.5-5.3-.3-7.2 1.8zM32 13.5c6.9 0 15.9-.2 20-.5l7.5-.5V32c0 17.7-.2 19.5-1.7 19.8-1.5.3-1.8-.4-1.8-4.5 0-2.7-.5-5.4-1.2-6.1-.7-.7-3.4-1.2-6-1.2H44v5c0 4.3-.3 5-2 5-1.8 0-2-.7-2-5.8 0-3.2-.5-6.3-1.2-7-1.6-1.6-12-1.6-13.6 0-.7.7-1.2 3.8-1.2 7 0 5.1-.2 5.8-2 5.8-1.7 0-2-.7-2-5v-5h-4.8c-2.6 0-5.3.5-6 1.2-.7.7-1.2 3.4-1.2 6.1 0 4.1-.3 4.8-1.7 4.5-1.6-.3-1.8-2.1-2.1-18.8-.1-10.1 0-19 .2-19.7.4-1 2.2-1.1 7.8-.6 4 .5 12.9.8 19.8.8z"/><path d="M29 25.5c-1.5 1.8-1 4.5 1.3 5.9 3.4 2.2 7.3-2.7 4.7-5.9-1.6-1.9-4.4-1.9-6 0zm-16 4c-1.5 1.8-1 4.5 1.3 5.9 3.4 2.2 7.3-2.7 4.7-5.9-1.6-1.9-4.4-1.9-6 0zm32 0c-1.5 1.8-1 4.5 1.3 5.9 3.4 2.2 7.3-2.7 4.7-5.9-1.6-1.9-4.4-1.9-6 0z"/></svg>