<svg version="1.0" xmlns="http://www.w3.org/2000/svg" viewBox="0 0 64 64"><path d="M22.5 1.4c-1.6 1.1-1.7 2.2-1.2 8.7.4 4.1.9 8.9 1.3 10.6l.7 3.3h-4.7c-4.1 0-5-.4-8.3-4.1-3-3.3-4.2-3.9-6.7-3.7l-3.1.3v31l3.1.3c2.5.2 3.7-.4 6.7-3.7 3.3-3.6 4.2-4.1 8.2-4.1 2.5 0 4.5.3 4.5.7-.1.5-.7 5-1.4 10.1C20.2 60.9 21 64 25.1 64c5.1 0 7.5-2.6 12-13.4L41.5 40h8.8c8 0 9-.2 11.2-2.5 3.3-3.2 3.3-7.8 0-11-2.2-2.3-3.2-2.5-11.2-2.5h-8.8l-1.9-4.8c-4.7-11.7-7.7-16.9-10.1-18-3.3-1.5-4.7-1.5-7 .2zm5.7 3.8c.9.7 3.7 6 6.1 11.8l4.4 10.5 9.8.5c7.9.4 10 .8 10.9 2.2.8 1.3.8 2.3 0 3.5-.9 1.5-3 1.9-10.8 2.3l-9.7.5L34.3 47c-5 11.7-5.9 13-8.1 13-1.2 0-1.4-1-.8-5.8.3-3.1.9-8.5 1.3-12l.6-6.2h-7.5c-7.6 0-7.6 0-11.2 4-2 2.2-3.8 4-4.1 4-.3 0-.5-5.4-.5-12s.2-12 .5-12 2.1 1.8 4.1 4c3.6 4 3.6 4 11.2 4h7.5l-.6-6.3c-.4-3.4-1-8.8-1.3-12-.7-5.9-.1-6.7 2.8-4.5z"/></svg>