<svg version="1.0" xmlns="http://www.w3.org/2000/svg" viewBox="0 0 64 64"><path d="M8.3 1.8C7.2 2.7 5.2 5.1 4.1 7L2 10.5v6.9l2.1 4.3c1.1 2.4 2.5 4.3 3 4.3H8v30.1l1.4 2.8 1.5 2.7 2.6 1.2c3.3 1.5 5.7 1.5 9 0l2.6-1.2 1.5-2.7 1.4-2.8V26h.9c.5 0 1.9-1.9 3-4.3l2.1-4.3v-6.9l-2.3-4-2.2-3.9L26.7 1 24-.5 22.3.6l-1.8 1.1-.3 5.2-.3 5.1H16V2.4l-1.2-1.2c-1.7-1.7-3.9-1.5-6.5.6zM18 16h6V3.7L26.5 6 29 8.3l.6 3.4c.8 4.4-.2 8-3.1 10.9L24 25.1V56l-2 2-2 2h-4l-2-2-2-2V24h-1c-.6 0-1.9-1.5-3-3.3l-2-3.2v-2.8c0-3.1 1.3-6.1 3.9-9.1l1.6-1.8.3 6.1.3 6.1H18zM39.4 3.5c-1.7 4-1.8 6.1-.4 7l1 .6v20.7l-2 .5-2 .5v23.3l1.4 2.8 1.5 2.7 2.6 1.2c3.3 1.5 5.7 1.5 9 0l2.6-1.2 1.5-2.7 1.4-2.8V32.8l-2-.5-2-.5V13.6l1.1-3 1.1-3.1-1.5-3.8L51.1 0H40.9l-1.5 3.5zm9.9 2.7.6 2.1-1 1.8-.9 1.8V32h-4V11.9l-.9-1.8-1-1.8.6-2.1.5-2.2h5.6l.5 2.2zM52 38v2H40v-4h12v2zm0 12v6l-2 2-2 2h-4l-2-2-2-2V44h12v6z"/></svg>