<svg version="1.0" xmlns="http://www.w3.org/2000/svg" viewBox="0 0 64 64"><path d="M22.2 1.4C13.5 4.3 5.6 12.2 2 21.8c-2.7 7.2-2.6 11.4.5 15 3.8 4.5 7.3 5.4 12.5 3.1 8.1-3.6 9.8-2.5 10.9 7.3 1 8.7 2.9 12.1 8.2 14.9C53.2 71.8 71.4 43 60.7 19.8 54.2 5.4 36.2-3.2 22.2 1.4zM44 7.6c13.2 7.2 18.9 21.3 14.5 36.1C54.7 56.6 44.9 63.1 36 58.5c-3.9-2-5.6-5.6-6.3-13.5-.6-5.3-1.2-6.9-3.2-8.8-3-2.5-7.7-2.8-11.5-.7-3.5 2-6.7 1.8-9-.5-6.6-6.6 4.7-25.9 17.8-30.1 5.1-1.6 14.6-.4 20.2 2.7z"/><path d="M28.4 13.4c-1 2.6.4 4.8 2.8 4.4 3.3-.4 3.3-5.2 0-5.6-1.3-.2-2.5.3-2.8 1.2zm12 4c-1 2.6.4 4.8 2.8 4.4 3.3-.4 3.3-5.2 0-5.6-1.3-.2-2.5.3-2.8 1.2zm7 9c-1 2.6.4 4.8 2.8 4.4 3.3-.4 3.3-5.2 0-5.6-1.3-.2-2.5.3-2.8 1.2zm0 12c-1 2.6.4 4.8 2.8 4.4 1.7-.2 2.3-1 2.3-2.8 0-1.8-.6-2.6-2.3-2.8-1.3-.2-2.5.3-2.8 1.2zm-8 8c-1 2.6.4 4.8 2.8 4.4 1.7-.2 2.3-1 2.3-2.8 0-1.8-.6-2.6-2.3-2.8-1.3-.2-2.5.3-2.8 1.2z"/></svg>